# xmcd
#
# Track frame offsets: 
#        150
#        17869
#        30739
#        48067
#        68537
#        88521
#        104828
#        117423
#        134906
#        152109
#        171457
#        189155
#        202147
#        218287
#        232599
#
# Disc length: 3287 seconds
#
# Revision: 0
# Processed by: cddbd v1.5.2PL0 Copyright (c) Steve Scherf et al.
# Submitted via: ExactAudioCopyFreeDBPlugin 1.0
#
DISCID=cb0cd50f
DTITLE=Diana Ross - Diamond Diana: The Legacy Collection
DYEAR=2017
DGENRE=R&B
TTITLE0=I'm Coming Out
TTITLE1=More Today Than Yesterday
TTITLE2=The Boss
TTITLE3=It's My House
TTITLE4=Endless Love with Lionel Richie
TTITLE5=Upside Down
TTITLE6=You Can't Hurry Love with The Supremes
TTITLE7=Touch Me In The Morning
TTITLE8=Love Hangover
TTITLE9=Take Me Higher
TTITLE10=It's My Turn
TTITLE11=Why Do Fools Fall In Love
TTITLE12=Ain't No Mountain High Enough
TTITLE13=Reach Out And Touch (Somebody's Hand)
TTITLE14=Ain't No Mountain High Enough-The Anmhe 'Diamond Diana' Remix
EXTD=
EXTT0=
EXTT1=
EXTT2=
EXTT3=
EXTT4=
EXTT5=
EXTT6=
EXTT7=
EXTT8=
EXTT9=
EXTT10=
EXTT11=
EXTT12=
EXTT13=
EXTT14=
PLAYORDER=
